<svg width="50" height="48" viewBox="0 0 50 48" fill="none" xmlns="http://www.w3.org/2000/svg">
<path d="M2.5 24C2.5 22.5588 2.62967 21.1483 2.87787 19.7794H13.6236C13.172 21.104 12.9271 22.5239 12.9271 24C12.9271 31.22 18.78 37.0729 26 37.0729C33.22 37.0729 39.0729 31.22 39.0729 24C39.0729 16.78 33.22 10.9271 26 10.9271C23.9262 10.9271 21.9641 11.4104 20.2212 12.2706V1.21569C22.0695 0.748389 24.0054 0.5 26 0.5C38.9787 0.5 49.5 11.0213 49.5 24C49.5 36.9787 38.9787 47.5 26 47.5C13.0213 47.5 2.5 36.9787 2.5 24Z" fill="#222222" stroke="#222222"/>
<path d="M0 2L17 4.90722V17L0 14.0928V2Z" fill="#00B711"/>
</svg>
