<svg width="48" height="48" viewBox="0 0 48 48" fill="none" xmlns="http://www.w3.org/2000/svg">
<path d="M46.5 23.9705C46.5 10.8254 36.5111 1.5 24 1.5C11.6128 1.5 1.5 10.8199 1.5 23.9705C1.5 37.1773 11.61 46.5 24 46.5C36.5139 46.5 46.5 37.1718 46.5 23.9705ZM11.4211 23.9705C11.4211 19.6569 12.7914 16.2838 14.982 13.9991C17.1699 11.7173 20.284 10.4072 24 10.4072C27.716 10.4072 30.8301 11.7173 33.018 13.9991C35.2086 16.2838 36.5789 19.6569 36.5789 23.9705C36.5789 28.2849 35.2079 31.6911 33.0122 34.007C30.8205 36.3186 27.7068 37.6519 24 37.6519C20.2932 37.6519 17.1795 36.3186 14.9878 34.007C12.7921 31.6911 11.4211 28.2849 11.4211 23.9705Z" fill="#222222" stroke="#222222" stroke-width="3"/>
</svg>
