<svg width="40" height="48" viewBox="0 0 40 48" fill="none" xmlns="http://www.w3.org/2000/svg">
<path d="M28.5162 44.5C28.5162 45.6046 29.4116 46.5 30.5162 46.5H36.5C37.6046 46.5 38.5 45.6046 38.5 44.5V3.5C38.5 2.39543 37.6046 1.5 36.5 1.5H30.5162C29.4116 1.5 28.5162 2.39543 28.5162 3.5V19.5086H11.4838V3.5C11.4838 2.39543 10.5884 1.5 9.48378 1.5H3.5C2.39543 1.5 1.5 2.39543 1.5 3.5V44.5C1.5 45.6046 2.39543 46.5 3.5 46.5H9.48378C10.5884 46.5 11.4838 45.6046 11.4838 44.5V28.1288H28.5162V44.5Z" fill="#222222" stroke="#222222" stroke-width="3"/>
</svg>
