<svg width="44" height="48" viewBox="0 0 44 48" fill="none" xmlns="http://www.w3.org/2000/svg">
<path d="M1.82659 43.8266L3.239 44.3316L1.82659 43.8266C1.36078 45.1292 2.3264 46.5 3.70981 46.5H9.82369C10.6723 46.5 11.4285 45.9645 11.7103 45.164L14.2559 37.931H29.6838L32.2294 45.164C32.5112 45.9645 33.2674 46.5 34.116 46.5H40.2902C41.6736 46.5 42.6392 45.1292 42.1734 43.8266L27.512 2.82657C27.2275 2.03099 26.4737 1.5 25.6287 1.5H18.3713C17.5263 1.5 16.7725 2.03097 16.488 2.82657L1.82659 43.8266ZM21.9938 15.854L26.7023 29.319H17.2436L21.9938 15.854Z" fill="#222222" stroke="#222222" stroke-width="3"/>
</svg>
