<svg width="36" height="48" viewBox="0 0 36 48" fill="none" xmlns="http://www.w3.org/2000/svg">
<path d="M11.537 20.8381V10.1201H17.8148C20.3578 10.1201 21.9257 10.71 22.8508 11.546C23.7484 12.3572 24.2778 13.6164 24.2778 15.5094C24.2778 17.331 23.7547 18.5803 22.8508 19.3972C21.9212 20.2372 20.3492 20.8381 17.8148 20.8381H11.537ZM34.5 15.5094C34.5 11.7161 33.1024 8.16716 30.231 5.57958C27.3687 3.00019 23.1826 1.5 17.8148 1.5H3.5C2.39543 1.5 1.5 2.39543 1.5 3.5V44.5C1.5 45.6046 2.39543 46.5 3.5 46.5H9.53704C10.6416 46.5 11.537 45.6046 11.537 44.5V29.4583H17.8148C23.6949 29.4583 27.9055 27.7499 30.65 25.0458C33.3845 22.3515 34.5 18.8284 34.5 15.5094Z" fill="#222222" stroke="#222222" stroke-width="3"/>
</svg>
