<svg width="267" height="48" viewBox="0 0 267 48" fill="none" xmlns="http://www.w3.org/2000/svg">
<path d="M242.537 20.8381V10.1201H248.815C251.358 10.1201 252.926 10.71 253.851 11.546C254.748 12.3572 255.278 13.6164 255.278 15.5094C255.278 17.331 254.755 18.5803 253.851 19.3972C252.921 20.2372 251.349 20.8381 248.815 20.8381H242.537ZM265.5 15.5094C265.5 11.7161 264.102 8.16716 261.231 5.57958C258.369 3.00019 254.183 1.5 248.815 1.5H234.5C233.395 1.5 232.5 2.39543 232.5 3.5V44.5C232.5 45.6046 233.395 46.5 234.5 46.5H240.537C241.642 46.5 242.537 45.6046 242.537 44.5V29.4583H248.815C254.695 29.4583 258.905 27.7499 261.65 25.0458C264.385 22.3515 265.5 18.8284 265.5 15.5094Z" fill="#222222" stroke="#222222" stroke-width="3"/>
<path d="M204.537 20.8381V10.1201H210.815C213.358 10.1201 214.926 10.71 215.851 11.546C216.748 12.3572 217.278 13.6164 217.278 15.5094C217.278 17.331 216.755 18.5803 215.851 19.3972C214.921 20.2372 213.349 20.8381 210.815 20.8381H204.537ZM227.5 15.5094C227.5 11.7161 226.102 8.16716 223.231 5.57958C220.369 3.00019 216.183 1.5 210.815 1.5H196.5C195.395 1.5 194.5 2.39543 194.5 3.5V44.5C194.5 45.6046 195.395 46.5 196.5 46.5H202.537C203.642 46.5 204.537 45.6046 204.537 44.5V29.4583H210.815C216.695 29.4583 220.905 27.7499 223.65 25.0458C226.385 22.3515 227.5 18.8284 227.5 15.5094Z" fill="#222222" stroke="#222222" stroke-width="3"/>
<path d="M148.827 43.8266L150.239 44.3316L148.827 43.8266C148.361 45.1292 149.326 46.5 150.71 46.5H156.824C157.672 46.5 158.429 45.9645 158.71 45.164L161.256 37.931H176.684L179.229 45.164C179.511 45.9645 180.267 46.5 181.116 46.5H187.29C188.674 46.5 189.639 45.1292 189.173 43.8266L174.512 2.82657C174.227 2.03099 173.474 1.5 172.629 1.5H165.371C164.526 1.5 163.773 2.03097 163.488 2.82657L148.827 43.8266ZM168.994 15.854L173.702 29.319H164.244L168.994 15.854Z" fill="#222222" stroke="#222222" stroke-width="3"/>
<path d="M133.516 44.5C133.516 45.6046 134.412 46.5 135.516 46.5H141.5C142.605 46.5 143.5 45.6046 143.5 44.5V3.5C143.5 2.39543 142.605 1.5 141.5 1.5H135.516C134.412 1.5 133.516 2.39543 133.516 3.5V19.5086H116.484V3.5C116.484 2.39543 115.588 1.5 114.484 1.5H108.5C107.395 1.5 106.5 2.39543 106.5 3.5V44.5C106.5 45.6046 107.395 46.5 108.5 46.5H114.484C115.588 46.5 116.484 45.6046 116.484 44.5V28.1288H133.516V44.5Z" fill="#222222" stroke="#222222" stroke-width="3"/>
<path d="M101.5 23.9705C101.5 10.8254 91.5111 1.5 79 1.5C66.6128 1.5 56.5 10.8199 56.5 23.9705C56.5 37.1773 66.61 46.5 79 46.5C91.5139 46.5 101.5 37.1718 101.5 23.9705ZM66.4211 23.9705C66.4211 19.6569 67.7914 16.2838 69.982 13.9991C72.1699 11.7173 75.284 10.4072 79 10.4072C82.716 10.4072 85.8301 11.7173 88.018 13.9991C90.2086 16.2838 91.5789 19.6569 91.5789 23.9705C91.5789 28.2849 90.2079 31.6911 88.0122 34.007C85.8205 36.3186 82.7068 37.6519 79 37.6519C75.2932 37.6519 72.1795 36.3186 69.9878 34.007C67.7921 31.6911 66.4211 28.2849 66.4211 23.9705Z" fill="#222222" stroke="#222222" stroke-width="3"/>
<path d="M2.5 24C2.5 22.5588 2.62967 21.1483 2.87787 19.7794H13.6236C13.172 21.104 12.9271 22.5239 12.9271 24C12.9271 31.22 18.78 37.0729 26 37.0729C33.22 37.0729 39.0729 31.22 39.0729 24C39.0729 16.78 33.22 10.9271 26 10.9271C23.9262 10.9271 21.9641 11.4104 20.2212 12.2706V1.21569C22.0695 0.748389 24.0054 0.5 26 0.5C38.9787 0.5 49.5 11.0213 49.5 24C49.5 36.9787 38.9787 47.5 26 47.5C13.0213 47.5 2.5 36.9787 2.5 24Z" fill="#222222" stroke="#222222"/>
<path d="M0 2L17 4.90722V17L0 14.0928V2Z" fill="#00B711"/>
</svg>
