<svg width="88" height="35" viewBox="0 0 88 35" fill="none" xmlns="http://www.w3.org/2000/svg">
<path d="M0.778838 8.97795C0.778838 8.5289 0.819239 8.08942 0.896574 7.6629H4.24473C4.10402 8.07562 4.02773 8.51802 4.02773 8.97795C4.02773 11.2276 5.85139 13.0512 8.101 13.0512C10.3506 13.0512 12.1743 11.2276 12.1743 8.97795C12.1743 6.72835 10.3506 4.90469 8.101 4.90469C7.45484 4.90469 6.84348 5.05525 6.30043 5.32328V1.87879C6.87631 1.73318 7.47952 1.65579 8.101 1.65579C12.1449 1.65579 15.4232 4.93403 15.4232 8.97795C15.4232 13.0219 12.1449 16.3001 8.101 16.3001C4.05708 16.3001 0.778838 13.0219 0.778838 8.97795Z" fill="#222222" stroke="#222222" stroke-width="0.311581"/>
<path d="M0 2.125L5.29688 3.03083V6.79872L0 5.89288V2.125Z" fill="#009A5C"/>
<path d="M32.3628 8.88192C32.3628 4.55674 29.0935 1.5 24.9704 1.5C20.8891 1.5 17.5781 4.55674 17.5781 8.88192C17.5781 13.2279 20.8891 16.2846 24.9704 16.2846C29.0935 16.2846 32.3628 13.2279 32.3628 8.88192ZM20.0145 8.88192C20.0145 5.61724 22.0968 3.57942 24.9704 3.57942C27.8441 3.57942 29.9264 5.61724 29.9264 8.88192C29.9264 12.1466 27.8441 14.226 24.9704 14.226C22.0968 14.226 20.0145 12.1466 20.0145 8.88192Z" fill="#222222" stroke="#222222" stroke-width="1.08621"/>
<path d="M43.8734 16.1086C43.8734 16.2058 43.9522 16.2846 44.0494 16.2846H46.1558C46.253 16.2846 46.3318 16.2058 46.3318 16.1086V1.67601C46.3318 1.5788 46.253 1.5 46.1558 1.5H44.0494C43.9522 1.5 43.8734 1.5788 43.8734 1.67601V7.83931H36.8217V1.67601C36.8217 1.5788 36.7429 1.5 36.6457 1.5H34.5393C34.4421 1.5 34.3633 1.5788 34.3633 1.67601V16.1086C34.3633 16.2058 34.4421 16.2846 34.5393 16.2846H36.6457C36.7429 16.2846 36.8217 16.2058 36.8217 16.1086V9.81769H43.8734V16.1086Z" fill="#222222" stroke="#222222" stroke-width="1.08621"/>
<path d="M59.1193 16.1671C59.1441 16.2375 59.2107 16.2846 59.2853 16.2846H61.4587C61.5805 16.2846 61.6655 16.164 61.6245 16.0494L56.4634 1.61674C56.4384 1.54673 56.3721 1.5 56.2977 1.5H53.7429C53.6686 1.5 53.6023 1.54673 53.5772 1.61674L48.4162 16.0494C48.3752 16.164 48.4601 16.2846 48.5819 16.2846H50.7341C50.8088 16.2846 50.8753 16.2375 50.9001 16.1671L51.9204 13.2682H58.0991L59.1193 16.1671ZM57.4196 11.2927H52.5998L55.0203 4.43144L57.4196 11.2927Z" fill="#222222" stroke="#222222" stroke-width="1.08621"/>
<path d="M66.1861 8.30732V3.47838H68.924C70.8579 3.47838 71.7271 4.37184 71.7271 5.90348C71.7271 7.39258 70.8579 8.30732 68.924 8.30732H66.1861ZM74.2694 5.90348C74.2694 3.49965 72.5094 1.5 68.924 1.5H63.885C63.7878 1.5 63.709 1.5788 63.709 1.67601V16.1086C63.709 16.2058 63.7878 16.2846 63.885 16.2846H66.0101C66.1073 16.2846 66.1861 16.2058 66.1861 16.1086V10.2857H68.924C72.857 10.2857 74.2694 8.0095 74.2694 5.90348Z" fill="#222222" stroke="#222222" stroke-width="1.08621"/>
<path d="M78.7467 8.30732V3.47838H81.4846C83.4185 3.47838 84.2877 4.37184 84.2877 5.90348C84.2877 7.39258 83.4185 8.30732 81.4846 8.30732H78.7467ZM86.83 5.90348C86.83 3.49965 85.0699 1.5 81.4846 1.5H76.4455C76.3483 1.5 76.2695 1.5788 76.2695 1.67601V16.1086C76.2695 16.2058 76.3483 16.2846 76.4455 16.2846H78.5707C78.6679 16.2846 78.7467 16.2058 78.7467 16.1086V10.2857H81.4846C85.4176 10.2857 86.83 8.0095 86.83 5.90348Z" fill="#222222" stroke="#222222" stroke-width="1.08621"/>
<path d="M4.36816 29.9893L7.30078 21.5469H8.72949L5.04492 31.5H4.02637L4.36816 29.9893ZM1.62695 21.5469L4.53223 29.9893L4.89453 31.5H3.87598L0.198242 21.5469H1.62695ZM12.6465 31.6367C12.1315 31.6367 11.6644 31.5501 11.2451 31.377C10.8304 31.1992 10.4727 30.9508 10.1719 30.6318C9.87565 30.3128 9.64779 29.9346 9.48828 29.4971C9.32878 29.0596 9.24902 28.5811 9.24902 28.0615V27.7744C9.24902 27.1729 9.33789 26.6374 9.51562 26.168C9.69336 25.694 9.9349 25.293 10.2402 24.9648C10.5456 24.6367 10.8919 24.3883 11.2793 24.2197C11.6667 24.0511 12.0677 23.9668 12.4824 23.9668C13.0111 23.9668 13.4668 24.0579 13.8496 24.2402C14.237 24.4225 14.5537 24.6777 14.7998 25.0059C15.0459 25.3294 15.2282 25.7122 15.3467 26.1543C15.4652 26.5918 15.5244 27.0703 15.5244 27.5898V28.1572H10.001V27.125H14.2598V27.0293C14.2415 26.7012 14.1732 26.3822 14.0547 26.0723C13.9408 25.7624 13.7585 25.5072 13.5078 25.3066C13.2572 25.1061 12.9154 25.0059 12.4824 25.0059C12.1953 25.0059 11.931 25.0674 11.6895 25.1904C11.4479 25.3089 11.2406 25.4867 11.0674 25.7236C10.8942 25.9606 10.7598 26.25 10.6641 26.5918C10.5684 26.9336 10.5205 27.3278 10.5205 27.7744V28.0615C10.5205 28.4124 10.5684 28.7428 10.6641 29.0527C10.7643 29.3581 10.9079 29.627 11.0947 29.8594C11.2861 30.0918 11.5163 30.2741 11.7852 30.4062C12.0586 30.5384 12.3685 30.6045 12.7148 30.6045C13.1615 30.6045 13.5397 30.5133 13.8496 30.3311C14.1595 30.1488 14.4307 29.9049 14.6631 29.5996L15.4287 30.208C15.2692 30.4495 15.0664 30.6797 14.8203 30.8984C14.5742 31.1172 14.2712 31.2949 13.9111 31.4316C13.5557 31.5684 13.1341 31.6367 12.6465 31.6367ZM18.2656 25.6826V31.5H17.001V24.1035H18.1973L18.2656 25.6826ZM17.9648 27.5215L17.4385 27.501C17.443 26.9951 17.5182 26.528 17.6641 26.0996C17.8099 25.6667 18.015 25.2907 18.2793 24.9717C18.5436 24.6527 18.8581 24.4066 19.2227 24.2334C19.5918 24.0557 19.9997 23.9668 20.4463 23.9668C20.8109 23.9668 21.139 24.0169 21.4307 24.1172C21.7223 24.2129 21.9707 24.3678 22.1758 24.582C22.3854 24.7962 22.5449 25.0742 22.6543 25.416C22.7637 25.7533 22.8184 26.1657 22.8184 26.6533V31.5H21.5469V26.6396C21.5469 26.2523 21.4899 25.9424 21.376 25.71C21.262 25.473 21.0957 25.3021 20.877 25.1973C20.6582 25.0879 20.3893 25.0332 20.0703 25.0332C19.7559 25.0332 19.4688 25.0993 19.209 25.2314C18.9538 25.3636 18.7327 25.5459 18.5459 25.7783C18.3636 26.0107 18.2201 26.2773 18.1152 26.5781C18.015 26.8743 17.9648 27.1888 17.9648 27.5215ZM29.4014 30.0645V21H30.6729V31.5H29.5107L29.4014 30.0645ZM24.4248 27.8838V27.7402C24.4248 27.1751 24.4932 26.6624 24.6299 26.2021C24.7712 25.7373 24.9694 25.3385 25.2246 25.0059C25.4844 24.6732 25.792 24.418 26.1475 24.2402C26.5075 24.0579 26.9085 23.9668 27.3506 23.9668C27.8154 23.9668 28.221 24.0488 28.5674 24.2129C28.9183 24.3724 29.2145 24.6071 29.4561 24.917C29.7021 25.2223 29.8958 25.5915 30.0371 26.0244C30.1784 26.4574 30.2764 26.9473 30.3311 27.4941V28.123C30.2809 28.6654 30.1829 29.153 30.0371 29.5859C29.8958 30.0189 29.7021 30.388 29.4561 30.6934C29.2145 30.9987 28.9183 31.2334 28.5674 31.3975C28.2165 31.557 27.8063 31.6367 27.3369 31.6367C26.904 31.6367 26.5075 31.5433 26.1475 31.3564C25.792 31.1696 25.4844 30.9076 25.2246 30.5703C24.9694 30.2331 24.7712 29.8366 24.6299 29.3809C24.4932 28.9206 24.4248 28.4215 24.4248 27.8838ZM25.6963 27.7402V27.8838C25.6963 28.2529 25.7327 28.5993 25.8057 28.9229C25.8831 29.2464 26.0016 29.5312 26.1611 29.7773C26.3206 30.0234 26.5234 30.2171 26.7695 30.3584C27.0156 30.4951 27.3096 30.5635 27.6514 30.5635C28.0706 30.5635 28.4147 30.4746 28.6836 30.2969C28.957 30.1191 29.1758 29.8844 29.3398 29.5928C29.5039 29.3011 29.6315 28.9844 29.7227 28.6426V26.9951C29.668 26.7445 29.5882 26.5029 29.4834 26.2705C29.3831 26.0335 29.251 25.8239 29.0869 25.6416C28.9274 25.4548 28.7292 25.3066 28.4922 25.1973C28.2598 25.0879 27.984 25.0332 27.665 25.0332C27.3187 25.0332 27.0202 25.1061 26.7695 25.252C26.5234 25.3932 26.3206 25.5892 26.1611 25.8398C26.0016 26.0859 25.8831 26.373 25.8057 26.7012C25.7327 27.0247 25.6963 27.3711 25.6963 27.7402ZM32.3066 27.8838V27.7266C32.3066 27.1934 32.3841 26.6989 32.5391 26.2432C32.694 25.7829 32.9173 25.3841 33.209 25.0469C33.5007 24.7051 33.8538 24.4408 34.2686 24.2539C34.6833 24.0625 35.1481 23.9668 35.6631 23.9668C36.1826 23.9668 36.6497 24.0625 37.0645 24.2539C37.4837 24.4408 37.8392 24.7051 38.1309 25.0469C38.4271 25.3841 38.6527 25.7829 38.8076 26.2432C38.9626 26.6989 39.04 27.1934 39.04 27.7266V27.8838C39.04 28.417 38.9626 28.9115 38.8076 29.3672C38.6527 29.8229 38.4271 30.2217 38.1309 30.5635C37.8392 30.9007 37.486 31.165 37.0713 31.3564C36.6611 31.5433 36.1963 31.6367 35.6768 31.6367C35.1572 31.6367 34.6901 31.5433 34.2754 31.3564C33.8607 31.165 33.5052 30.9007 33.209 30.5635C32.9173 30.2217 32.694 29.8229 32.5391 29.3672C32.3841 28.9115 32.3066 28.417 32.3066 27.8838ZM33.5713 27.7266V27.8838C33.5713 28.2529 33.6146 28.6016 33.7012 28.9297C33.7878 29.2533 33.9176 29.5404 34.0908 29.791C34.2686 30.0417 34.4896 30.2399 34.7539 30.3857C35.0182 30.527 35.3258 30.5977 35.6768 30.5977C36.0231 30.5977 36.3262 30.527 36.5859 30.3857C36.8503 30.2399 37.069 30.0417 37.2422 29.791C37.4154 29.5404 37.5452 29.2533 37.6318 28.9297C37.723 28.6016 37.7686 28.2529 37.7686 27.8838V27.7266C37.7686 27.362 37.723 27.0179 37.6318 26.6943C37.5452 26.3662 37.4131 26.0768 37.2354 25.8262C37.0622 25.571 36.8434 25.3704 36.5791 25.2246C36.3193 25.0788 36.014 25.0059 35.6631 25.0059C35.3167 25.0059 35.0114 25.0788 34.7471 25.2246C34.4873 25.3704 34.2686 25.571 34.0908 25.8262C33.9176 26.0768 33.7878 26.3662 33.7012 26.6943C33.6146 27.0179 33.5713 27.362 33.5713 27.7266ZM41.8906 25.2656V31.5H40.626V24.1035H41.8564L41.8906 25.2656ZM44.2012 24.0625L44.1943 25.2383C44.0895 25.2155 43.9893 25.2018 43.8936 25.1973C43.8024 25.1882 43.6976 25.1836 43.5791 25.1836C43.2874 25.1836 43.0299 25.2292 42.8066 25.3203C42.5833 25.4115 42.3942 25.5391 42.2393 25.7031C42.0843 25.8672 41.9613 26.0632 41.8701 26.291C41.7835 26.5143 41.7266 26.7604 41.6992 27.0293L41.3438 27.2344C41.3438 26.7878 41.387 26.3685 41.4736 25.9766C41.5648 25.5846 41.7038 25.2383 41.8906 24.9375C42.0775 24.6322 42.3145 24.3952 42.6016 24.2266C42.8932 24.0534 43.2396 23.9668 43.6406 23.9668C43.7318 23.9668 43.8366 23.9782 43.9551 24.001C44.0736 24.0192 44.1556 24.0397 44.2012 24.0625Z" fill="#282C3E"/>
</svg>
