<svg width="222" height="58" viewBox="0 0 222 58" fill="none" xmlns="http://www.w3.org/2000/svg">
<path d="M51.5 28.9705C51.5 15.8254 41.5111 6.5 29 6.5C16.6128 6.5 6.5 15.8199 6.5 28.9705C6.5 42.1773 16.61 51.5 29 51.5C41.5139 51.5 51.5 42.1718 51.5 28.9705ZM16.4211 28.9705C16.4211 24.6569 17.7914 21.2838 19.982 18.9991C22.1699 16.7173 25.284 15.4072 29 15.4072C32.716 15.4072 35.8301 16.7173 38.018 18.9991C40.2086 21.2838 41.5789 24.6569 41.5789 28.9705C41.5789 33.2849 40.2079 36.6911 38.0122 39.007C35.8205 41.3186 32.7068 42.6519 29 42.6519C25.2932 42.6519 22.1795 41.3186 19.9878 39.007C17.7921 36.6911 16.4211 33.2849 16.4211 28.9705Z" fill="#222222" stroke="#222222" stroke-width="3"/>
<path d="M83.5162 49.5C83.5162 50.6046 84.4116 51.5 85.5162 51.5H91.5C92.6046 51.5 93.5 50.6046 93.5 49.5V8.5C93.5 7.39543 92.6046 6.5 91.5 6.5H85.5162C84.4116 6.5 83.5162 7.39543 83.5162 8.5V24.5086H66.4838V8.5C66.4838 7.39543 65.5884 6.5 64.4838 6.5H58.5C57.3954 6.5 56.5 7.39543 56.5 8.5V49.5C56.5 50.6046 57.3954 51.5 58.5 51.5H64.4838C65.5884 51.5 66.4838 50.6046 66.4838 49.5V33.1288H83.5162V49.5Z" fill="#222222" stroke="#222222" stroke-width="3"/>
<path d="M98.8266 48.8266L100.239 49.3316L98.8266 48.8266C98.3608 50.1292 99.3264 51.5 100.71 51.5H106.824C107.672 51.5 108.429 50.9645 108.71 50.164L111.256 42.931H126.684L129.229 50.164C129.511 50.9645 130.267 51.5 131.116 51.5H137.29C138.674 51.5 139.639 50.1292 139.173 48.8266L124.512 7.82657C124.227 7.03099 123.474 6.5 122.629 6.5H115.371C114.526 6.5 113.773 7.03097 113.488 7.82657L98.8266 48.8266ZM118.994 20.854L123.702 34.319H114.244L118.994 20.854Z" fill="#222222" stroke="#222222" stroke-width="3"/>
<path d="M154.537 25.8381V15.1201H160.815C163.358 15.1201 164.926 15.71 165.851 16.546C166.748 17.3572 167.278 18.6164 167.278 20.5094C167.278 22.331 166.755 23.5803 165.851 24.3972C164.921 25.2372 163.349 25.8381 160.815 25.8381H154.537ZM177.5 20.5094C177.5 16.7161 176.102 13.1672 173.231 10.5796C170.369 8.00019 166.183 6.5 160.815 6.5H146.5C145.395 6.5 144.5 7.39543 144.5 8.5V49.5C144.5 50.6046 145.395 51.5 146.5 51.5H152.537C153.642 51.5 154.537 50.6046 154.537 49.5V34.4583H160.815C166.695 34.4583 170.905 32.7499 173.65 30.0458C176.385 27.3515 177.5 23.8284 177.5 20.5094Z" fill="#222222" stroke="#222222" stroke-width="3"/>
<path d="M192.537 25.8381V15.1201H198.815C201.358 15.1201 202.926 15.71 203.851 16.546C204.748 17.3572 205.278 18.6164 205.278 20.5094C205.278 22.331 204.755 23.5803 203.851 24.3972C202.921 25.2372 201.349 25.8381 198.815 25.8381H192.537ZM215.5 20.5094C215.5 16.7161 214.102 13.1672 211.231 10.5796C208.369 8.00019 204.183 6.5 198.815 6.5H184.5C183.395 6.5 182.5 7.39543 182.5 8.5V49.5C182.5 50.6046 183.395 51.5 184.5 51.5H190.537C191.642 51.5 192.537 50.6046 192.537 49.5V34.4583H198.815C204.695 34.4583 208.905 32.7499 211.65 30.0458C214.385 27.3515 215.5 23.8284 215.5 20.5094Z" fill="#222222" stroke="#222222" stroke-width="3"/>
</svg>
