<svg width="171" height="62" viewBox="0 0 171 62" fill="none" xmlns="http://www.w3.org/2000/svg">
<path d="M1.97471 13.6563C1.76481 14.7374 1.65473 15.8555 1.65473 17C1.65473 26.3888 9.0632 34 18.202 34C27.3408 34 34.7493 26.3888 34.7493 17C34.7493 7.61116 27.3408 0 18.202 0C16.7042 0 15.2528 0.204455 13.873 0.58768V9.28251C15.1468 8.5267 16.6253 8.09421 18.202 8.09421C22.9896 8.09421 26.8707 12.0815 26.8707 17C26.8707 21.9185 22.9896 25.9058 18.202 25.9058C13.4145 25.9058 9.53339 21.9185 9.53339 17C9.53339 15.8174 9.75775 14.6887 10.1651 13.6563H1.97471Z" fill="#282C3E"/>
<path d="M0 1.275L11.9968 3.33428V11.9L0 9.84072V1.275Z" fill="#00B711"/>
<path d="M67.8439 34V0H75.5707V13.2812H85.799V0H93.5257V34H85.799V20.7188H75.5707V34H67.8439Z" fill="#282C3E"/>
<path fill-rule="evenodd" clip-rule="evenodd" d="M51.2966 0C42.3863 0 35.163 7.61116 35.163 17C35.163 26.3888 42.3863 34 51.2966 34C60.207 34 67.4302 26.3888 67.4302 17C67.4302 7.61116 60.207 0 51.2966 0ZM51.2966 8.075C46.6187 8.075 42.8265 12.0709 42.8265 17C42.8265 21.9291 46.6187 25.925 51.2966 25.925C55.9745 25.925 59.7668 21.9291 59.7668 17C59.7668 12.0709 55.9745 8.075 51.2966 8.075Z" fill="#282C3E"/>
<path d="M102.631 34H94.2929L103.687 0H114.249L123.644 34H115.305L109.079 9.36328H108.857L102.631 34ZM106.021 20.5859H111.915L113.661 27.4922H104.276L106.021 20.5859Z" fill="#282C3E"/>
<path d="M124.428 34V0H136.713C138.825 0 140.674 0.498047 142.258 1.49414C143.842 2.49023 145.074 3.8903 145.955 5.69434C146.835 7.49837 147.275 9.60677 147.275 12.0195C147.275 14.4544 146.821 16.5628 145.913 18.3447C145.014 20.1266 143.75 21.499 142.119 22.4619C140.498 23.4248 138.603 23.9062 136.435 23.9062H132.155V16.7344H134.879C135.787 16.7344 136.56 16.5462 137.199 16.1699C137.848 15.7825 138.344 15.2347 138.686 14.5264C139.039 13.818 139.215 12.9824 139.215 12.0195C139.215 11.0456 139.039 10.2155 138.686 9.5293C138.344 8.83203 137.848 8.30078 137.199 7.93555C136.56 7.55924 135.787 7.37109 134.879 7.37109H132.155V34H124.428Z" fill="#282C3E"/>
<path d="M148.153 34V0H160.438C162.551 0 164.399 0.498047 165.983 1.49414C167.567 2.49023 168.8 3.8903 169.68 5.69434C170.56 7.49837 171 9.60677 171 12.0195C171 14.4544 170.546 16.5628 169.638 18.3447C168.739 20.1266 167.475 21.499 165.844 22.4619C164.223 23.4248 162.328 23.9062 160.16 23.9062H155.88V16.7344H158.604C159.512 16.7344 160.285 16.5462 160.925 16.1699C161.573 15.7825 162.069 15.2347 162.412 14.5264C162.764 13.818 162.94 12.9824 162.94 12.0195C162.94 11.0456 162.764 10.2155 162.412 9.5293C162.069 8.83203 161.573 8.30078 160.925 7.93555C160.285 7.55924 159.512 7.37109 158.604 7.37109H155.88V34H148.153Z" fill="#282C3E"/>
<path d="M67.0028 44.88L62.8268 56H60.7148L56.5228 44.88H58.4748L61.7708 54.128L65.0828 44.88H67.0028ZM76.6081 51.376C76.6081 51.7067 76.5868 52.0053 76.5441 52.272H69.8081C69.8615 52.976 70.1228 53.5413 70.5921 53.968C71.0615 54.3947 71.6375 54.608 72.3201 54.608C73.3015 54.608 73.9948 54.1973 74.4001 53.376H76.3681C76.1015 54.1867 75.6161 54.8533 74.9121 55.376C74.2188 55.888 73.3548 56.144 72.3201 56.144C71.4775 56.144 70.7201 55.9573 70.0481 55.584C69.3868 55.2 68.8641 54.6667 68.4801 53.984C68.1068 53.2907 67.9201 52.4907 67.9201 51.584C67.9201 50.6773 68.1015 49.8827 68.4641 49.2C68.8375 48.5067 69.3548 47.9733 70.0161 47.6C70.6881 47.2267 71.4561 47.04 72.3201 47.04C73.1521 47.04 73.8935 47.2213 74.5441 47.584C75.1948 47.9467 75.7015 48.4587 76.0641 49.12C76.4268 49.7707 76.6081 50.5227 76.6081 51.376ZM74.7041 50.8C74.6935 50.128 74.4535 49.5893 73.9841 49.184C73.5148 48.7787 72.9335 48.576 72.2401 48.576C71.6108 48.576 71.0721 48.7787 70.6241 49.184C70.1761 49.5787 69.9095 50.1173 69.8241 50.8H74.7041ZM82.8511 47.04C83.5445 47.04 84.1631 47.184 84.7071 47.472C85.2618 47.76 85.6938 48.1867 86.0031 48.752C86.3125 49.3173 86.4671 50 86.4671 50.8V56H84.6591V51.072C84.6591 50.2827 84.4618 49.68 84.0671 49.264C83.6725 48.8373 83.1338 48.624 82.4511 48.624C81.7685 48.624 81.2245 48.8373 80.8191 49.264C80.4245 49.68 80.2271 50.2827 80.2271 51.072V56H78.4031V47.184H80.2271V48.192C80.5258 47.8293 80.9045 47.5467 81.3631 47.344C81.8325 47.1413 82.3285 47.04 82.8511 47.04ZM88.1858 51.552C88.1858 50.6667 88.3671 49.8827 88.7298 49.2C89.1031 48.5173 89.6044 47.9893 90.2338 47.616C90.8738 47.232 91.5831 47.04 92.3618 47.04C92.9378 47.04 93.5031 47.168 94.0578 47.424C94.6231 47.6693 95.0711 48 95.4018 48.416V44.16H97.2418V56H95.4018V54.672C95.1031 55.0987 94.6871 55.4507 94.1538 55.728C93.6311 56.0053 93.0284 56.144 92.3458 56.144C91.5778 56.144 90.8738 55.952 90.2338 55.568C89.6044 55.1733 89.1031 54.6293 88.7298 53.936C88.3671 53.232 88.1858 52.4373 88.1858 51.552ZM95.4018 51.584C95.4018 50.976 95.2738 50.448 95.0178 50C94.7724 49.552 94.4471 49.2107 94.0418 48.976C93.6364 48.7413 93.1991 48.624 92.7298 48.624C92.2604 48.624 91.8231 48.7413 91.4178 48.976C91.0124 49.2 90.6818 49.536 90.4258 49.984C90.1804 50.4213 90.0578 50.944 90.0578 51.552C90.0578 52.16 90.1804 52.6933 90.4258 53.152C90.6818 53.6107 91.0124 53.9627 91.4178 54.208C91.8338 54.4427 92.2711 54.56 92.7298 54.56C93.1991 54.56 93.6364 54.4427 94.0418 54.208C94.4471 53.9733 94.7724 53.632 95.0178 53.184C95.2738 52.7253 95.4018 52.192 95.4018 51.584ZM103.462 56.144C102.63 56.144 101.878 55.9573 101.206 55.584C100.534 55.2 100.006 54.6667 99.6215 53.984C99.2375 53.2907 99.0455 52.4907 99.0455 51.584C99.0455 50.688 99.2428 49.8933 99.6375 49.2C100.032 48.5067 100.571 47.9733 101.254 47.6C101.936 47.2267 102.699 47.04 103.542 47.04C104.384 47.04 105.147 47.2267 105.83 47.6C106.512 47.9733 107.051 48.5067 107.446 49.2C107.84 49.8933 108.038 50.688 108.038 51.584C108.038 52.48 107.835 53.2747 107.43 53.968C107.024 54.6613 106.47 55.2 105.766 55.584C105.072 55.9573 104.304 56.144 103.462 56.144ZM103.462 54.56C103.931 54.56 104.368 54.448 104.774 54.224C105.19 54 105.526 53.664 105.782 53.216C106.038 52.768 106.166 52.224 106.166 51.584C106.166 50.944 106.043 50.4053 105.798 49.968C105.552 49.52 105.227 49.184 104.822 48.96C104.416 48.736 103.979 48.624 103.51 48.624C103.04 48.624 102.603 48.736 102.198 48.96C101.803 49.184 101.488 49.52 101.254 49.968C101.019 50.4053 100.902 50.944 100.902 51.584C100.902 52.5333 101.142 53.2693 101.622 53.792C102.112 54.304 102.726 54.56 103.462 54.56ZM111.665 48.464C111.931 48.016 112.283 47.6693 112.721 47.424C113.169 47.168 113.697 47.04 114.305 47.04V48.928H113.841C113.126 48.928 112.582 49.1093 112.209 49.472C111.846 49.8347 111.665 50.464 111.665 51.36V56H109.841V47.184H111.665V48.464Z" fill="#222222"/>
</svg>
