<svg width="343" height="68" viewBox="0 0 343 68" fill="none" xmlns="http://www.w3.org/2000/svg">
<path d="M3.96097 27.1962C3.53994 29.3492 3.31914 31.5759 3.31914 33.8551C3.31914 52.5528 18.1794 67.7103 36.5105 67.7103C54.8416 67.7103 69.7019 52.5528 69.7019 33.8551C69.7019 15.1575 54.8416 0 36.5105 0C33.5061 0 30.5949 0.407168 27.8271 1.17035V18.4859C30.3822 16.9807 33.3478 16.1194 36.5105 16.1194C46.1136 16.1194 53.8985 24.06 53.8985 33.8551C53.8985 43.6503 46.1136 51.5908 36.5105 51.5908C26.9074 51.5908 19.1225 43.6503 19.1225 33.8551C19.1225 31.5001 19.5726 29.2522 20.3897 27.1962H3.96097Z" fill="white"/>
<path d="M0 2.53914L24.0637 6.64015V23.6986L0 19.5976V2.53914Z" fill="#00B711"/>
<path d="M136.085 67.7103V0H151.583V26.4493H172.1V0H187.598V67.7103H172.1V41.261H151.583V67.7103H136.085Z" fill="white"/>
<path fill-rule="evenodd" clip-rule="evenodd" d="M102.893 0C85.0204 0 70.5316 15.1575 70.5316 33.8551C70.5316 52.5528 85.0204 67.7103 102.893 67.7103C120.766 67.7103 135.255 52.5528 135.255 33.8551C135.255 15.1575 120.766 0 102.893 0ZM102.893 16.0812C93.51 16.0812 85.9034 24.0389 85.9034 33.8551C85.9034 43.6714 93.51 51.6291 102.893 51.6291C112.276 51.6291 119.883 43.6714 119.883 33.8551C119.883 24.0389 112.276 16.0812 102.893 16.0812Z" fill="white"/>
<path d="M205.862 67.7103H189.137L207.981 0H229.166L248.01 67.7103H231.285L218.797 18.6468H218.351L205.862 67.7103ZM212.662 40.9965H224.485L227.986 54.7501H209.161L212.662 40.9965Z" fill="white"/>
<path d="M249.584 67.7103V0H274.226C278.463 0 282.17 0.991851 285.348 2.97555C288.526 4.95925 290.997 7.74745 292.763 11.3402C294.528 14.9329 295.411 19.1317 295.411 23.9366C295.411 28.7857 294.5 32.9845 292.679 36.5331C290.877 40.0818 288.34 42.8149 285.069 44.7324C281.817 46.65 278.017 47.6088 273.668 47.6088H265.083V33.3262H270.546C272.367 33.3262 273.919 32.9515 275.201 32.2021C276.502 31.4306 277.496 30.3396 278.184 28.929C278.89 27.5183 279.243 25.8542 279.243 23.9366C279.243 21.997 278.89 20.3439 278.184 18.9774C277.496 17.5888 276.502 16.5308 275.201 15.8035C273.919 15.0541 272.367 14.6794 270.546 14.6794H265.083V67.7103H249.584Z" fill="white"/>
<path d="M297.173 67.7103V0H321.815C326.052 0 329.759 0.991851 332.937 2.97555C336.115 4.95925 338.586 7.74745 340.352 11.3402C342.117 14.9329 343 19.1317 343 23.9366C343 28.7857 342.089 32.9845 340.268 36.5331C338.466 40.0818 335.929 42.8149 332.658 44.7324C329.406 46.65 325.606 47.6088 321.257 47.6088H312.671V33.3262H318.135C319.956 33.3262 321.508 32.9515 322.79 32.2021C324.091 31.4306 325.085 30.3396 325.773 28.929C326.479 27.5183 326.832 25.8542 326.832 23.9366C326.832 21.997 326.479 20.3439 325.773 18.9774C325.085 17.5888 324.091 16.5308 322.79 15.8035C321.508 15.0541 319.956 14.6794 318.135 14.6794H312.671V67.7103H297.173Z" fill="white"/>
</svg>
