<svg width="343" height="273" viewBox="0 0 343 273" fill="none" xmlns="http://www.w3.org/2000/svg">
<g opacity="0.15">
<path d="M172.513 231.336V205.326H187.13V272.157H172.513V246.148V245.708H172.074H151.56H151.121V246.148V272.157H136.504V205.326H151.121V231.336V231.776H151.56H172.074H172.513V231.336ZM224.11 246.323L227.386 259.197H209.695L212.972 246.323H224.11ZM208.564 260.077L205.49 272.157H189.687L208.284 205.326H228.798L247.394 272.157H231.592L228.517 260.077L228.378 259.528L224.878 245.775L224.793 245.444L219.19 223.425L219.105 223.094H218.764H218.318H217.976L217.892 223.425L212.288 245.444L212.204 245.775L208.704 259.528L208.564 260.077ZM273.627 252.056H265.482V238.653H270.505C272.387 238.653 274.019 238.265 275.382 237.468L275.384 237.467C276.761 236.65 277.813 235.494 278.537 234.009C279.278 232.526 279.641 230.793 279.641 228.823C279.641 226.832 279.279 225.107 278.534 223.664C277.809 222.203 276.756 221.08 275.378 220.308C274.015 219.513 272.385 219.126 270.505 219.126H265.043H264.603V219.566V237.773V238.213V252.496V252.935V272.157H249.986V205.326H274.184C278.349 205.326 281.973 206.301 285.072 208.235C288.175 210.172 290.592 212.896 292.324 216.421C294.054 219.942 294.927 224.072 294.927 228.823C294.927 233.617 294.027 237.745 292.244 241.219L292.243 241.221C290.477 244.698 287.998 247.367 284.804 249.24L284.803 249.24C281.629 251.112 277.908 252.056 273.627 252.056ZM321.209 252.056H313.064V238.653H318.087C319.968 238.653 321.6 238.265 322.964 237.468L322.966 237.467C324.342 236.651 325.394 235.495 326.117 234.012C326.86 232.528 327.223 230.794 327.223 228.823C327.223 226.833 326.861 225.108 326.116 223.666C325.392 222.204 324.338 221.08 322.96 220.308C321.597 219.513 319.967 219.126 318.087 219.126H312.624H312.185V219.566V237.773V238.213V252.496V252.935V272.157H297.568V205.326H321.766C325.931 205.326 329.555 206.301 332.654 208.235C335.757 210.172 338.174 212.896 339.906 216.421C341.636 219.942 342.509 224.072 342.509 228.823C342.509 233.617 341.609 237.745 339.826 241.219L339.825 241.221C338.059 244.698 335.58 247.367 332.386 249.24L332.385 249.24C329.21 251.112 325.49 252.056 321.209 252.056ZM3.75831 238.742C3.75831 236.616 3.95275 234.537 4.32438 232.523H19.751C19.0579 234.463 18.68 236.558 18.68 238.742C18.68 248.772 26.6523 256.917 36.505 256.917C46.3577 256.917 54.33 248.772 54.33 238.742C54.33 228.712 46.3577 220.566 36.505 220.566C33.5317 220.566 30.7276 221.309 28.2626 222.622V206.394C30.8955 205.697 33.6576 205.326 36.505 205.326C54.5822 205.326 69.2517 220.279 69.2517 238.742C69.2517 257.205 54.5822 272.157 36.505 272.157C18.4277 272.157 3.75831 257.205 3.75831 238.742ZM23.6204 228.064L0.439677 224.113V207.947L23.6204 211.898V228.064ZM70.9607 238.742C70.9607 220.268 85.269 205.326 102.878 205.326C120.486 205.326 134.795 220.268 134.795 238.742C134.795 257.216 120.486 272.157 102.878 272.157C85.269 272.157 70.9607 257.216 70.9607 238.742ZM102.878 220.528C93.2345 220.528 85.4508 228.702 85.4508 238.742C85.4508 248.782 93.2345 256.955 102.878 256.955C112.521 256.955 120.305 248.782 120.305 238.742C120.305 228.702 112.521 220.528 102.878 220.528Z" fill="#222222" stroke="white" stroke-width="0.879355"/>
<path d="M172.513 180.336V154.326H187.13V221.157H172.513V195.148V194.708H172.074H151.56H151.121V195.148V221.157H136.504V154.326H151.121V180.336V180.776H151.56H172.074H172.513V180.336ZM224.11 195.323L227.386 208.197H209.695L212.972 195.323H224.11ZM208.564 209.077L205.49 221.157H189.687L208.284 154.326H228.798L247.394 221.157H231.592L228.517 209.077L228.378 208.528L224.878 194.775L224.793 194.444L219.19 172.425L219.105 172.094H218.764H218.318H217.976L217.892 172.425L212.288 194.444L212.204 194.775L208.704 208.528L208.564 209.077ZM273.627 201.056H265.482V187.653H270.505C272.387 187.653 274.019 187.265 275.382 186.468L275.384 186.467C276.761 185.65 277.813 184.494 278.537 183.009C279.278 181.526 279.641 179.793 279.641 177.823C279.641 175.832 279.279 174.107 278.534 172.664C277.809 171.203 276.756 170.08 275.378 169.308C274.015 168.513 272.385 168.126 270.505 168.126H265.043H264.603V168.566V186.773V187.213V201.496V201.935V221.157H249.986V154.326H274.184C278.349 154.326 281.973 155.301 285.072 157.235C288.175 159.172 290.592 161.896 292.324 165.421C294.054 168.942 294.927 173.072 294.927 177.823C294.927 182.617 294.027 186.745 292.244 190.219L292.243 190.221C290.477 193.698 287.998 196.367 284.804 198.24L284.803 198.24C281.629 200.112 277.908 201.056 273.627 201.056ZM321.209 201.056H313.064V187.653H318.087C319.968 187.653 321.6 187.265 322.964 186.468L322.966 186.467C324.342 185.651 325.394 184.495 326.117 183.012C326.86 181.528 327.223 179.794 327.223 177.823C327.223 175.833 326.861 174.108 326.116 172.666C325.392 171.204 324.338 170.08 322.96 169.308C321.597 168.513 319.967 168.126 318.087 168.126H312.624H312.185V168.566V186.773V187.213V201.496V201.935V221.157H297.568V154.326H321.766C325.931 154.326 329.555 155.301 332.654 157.235C335.757 159.172 338.174 161.896 339.906 165.421C341.636 168.942 342.509 173.072 342.509 177.823C342.509 182.617 341.609 186.745 339.826 190.219L339.825 190.221C338.059 193.698 335.58 196.367 332.386 198.24L332.385 198.24C329.21 200.112 325.49 201.056 321.209 201.056ZM3.75831 187.742C3.75831 185.616 3.95275 183.537 4.32438 181.523H19.751C19.0579 183.463 18.68 185.558 18.68 187.742C18.68 197.772 26.6523 205.917 36.505 205.917C46.3577 205.917 54.33 197.772 54.33 187.742C54.33 177.712 46.3577 169.566 36.505 169.566C33.5317 169.566 30.7276 170.309 28.2626 171.622V155.394C30.8955 154.697 33.6576 154.326 36.505 154.326C54.5822 154.326 69.2517 169.279 69.2517 187.742C69.2517 206.205 54.5822 221.157 36.505 221.157C18.4277 221.157 3.75831 206.205 3.75831 187.742ZM23.6204 177.064L0.439677 173.113V156.947L23.6204 160.898V177.064ZM70.9607 187.742C70.9607 169.268 85.269 154.326 102.878 154.326C120.486 154.326 134.795 169.268 134.795 187.742C134.795 206.216 120.486 221.157 102.878 221.157C85.269 221.157 70.9607 206.216 70.9607 187.742ZM102.878 169.528C93.2345 169.528 85.4508 177.702 85.4508 187.742C85.4508 197.782 93.2345 205.955 102.878 205.955C112.521 205.955 120.305 197.782 120.305 187.742C120.305 177.702 112.521 169.528 102.878 169.528Z" fill="#222222" stroke="white" stroke-width="0.879355"/>
<path d="M172.513 128.453V102.444H187.13V169.275H172.513V143.265V142.825H172.074H151.56H151.121V143.265V169.275H136.504V102.444H151.121V128.453V128.893H151.56H172.074H172.513V128.453ZM224.11 143.44L227.386 156.314H209.695L212.972 143.44H224.11ZM208.564 157.194L205.49 169.275H189.687L208.284 102.444H228.798L247.394 169.275H231.592L228.517 157.194L228.378 156.646L224.878 142.892L224.793 142.561L219.19 120.542L219.105 120.211H218.764H218.318H217.976L217.892 120.542L212.288 142.561L212.204 142.892L208.704 156.646L208.564 157.194ZM273.627 149.173H265.482V135.77H270.505C272.387 135.77 274.019 135.382 275.382 134.586L275.384 134.584C276.761 133.767 277.813 132.611 278.537 131.126C279.278 129.644 279.641 127.911 279.641 125.941C279.641 123.95 279.279 122.224 278.534 120.782C277.809 119.32 276.756 118.197 275.378 117.425C274.015 116.63 272.385 116.244 270.505 116.244H265.043H264.603V116.683V134.89V135.33V149.613V150.052V169.275H249.986V102.444H274.184C278.349 102.444 281.973 103.418 285.072 105.352C288.175 107.29 290.592 110.014 292.324 113.538C294.054 117.059 294.927 121.19 294.927 125.941C294.927 130.735 294.027 134.862 292.244 138.336L292.243 138.338C290.477 141.815 287.998 144.484 284.804 146.357L284.803 146.358C281.629 148.23 277.908 149.173 273.627 149.173ZM321.209 149.173H313.064V135.77H318.087C319.968 135.77 321.6 135.382 322.964 134.586L322.966 134.584C324.342 133.768 325.394 132.612 326.117 131.129C326.86 129.646 327.223 127.912 327.223 125.941C327.223 123.95 326.861 122.225 326.116 120.783C325.392 119.321 324.338 118.197 322.96 117.425C321.597 116.63 319.967 116.244 318.087 116.244H312.624H312.185V116.683V134.89V135.33V149.613V150.052V169.275H297.568V102.444H321.766C325.931 102.444 329.555 103.418 332.654 105.352C335.757 107.29 338.174 110.014 339.906 113.538C341.636 117.059 342.509 121.189 342.509 125.941C342.509 130.735 341.609 134.862 339.826 138.336L339.825 138.338C338.059 141.815 335.58 144.484 332.386 146.357L332.385 146.358C329.21 148.23 325.49 149.173 321.209 149.173ZM3.75831 135.859C3.75831 133.733 3.95275 131.655 4.32438 129.64H19.751C19.0579 131.581 18.68 133.675 18.68 135.859C18.68 145.889 26.6523 154.034 36.505 154.034C46.3577 154.034 54.33 145.889 54.33 135.859C54.33 125.829 46.3577 117.684 36.505 117.684C33.5317 117.684 30.7276 118.426 28.2626 119.739V103.511C30.8955 102.814 33.6576 102.444 36.505 102.444C54.5822 102.444 69.2517 117.396 69.2517 135.859C69.2517 154.322 54.5822 169.275 36.505 169.275C18.4277 169.275 3.75831 154.322 3.75831 135.859ZM23.6204 125.182L0.439677 121.23V105.064L23.6204 109.015V125.182ZM70.9607 135.859C70.9607 117.385 85.269 102.444 102.878 102.444C120.486 102.444 134.795 117.385 134.795 135.859C134.795 154.333 120.486 169.275 102.878 169.275C85.269 169.275 70.9607 154.333 70.9607 135.859ZM102.878 117.645C93.2345 117.645 85.4508 125.819 85.4508 135.859C85.4508 145.899 93.2345 154.073 102.878 154.073C112.521 154.073 120.305 145.899 120.305 135.859C120.305 125.819 112.521 117.645 102.878 117.645Z" fill="#222222" stroke="white" stroke-width="0.879355"/>
<path d="M172.513 77.4532V51.4436H187.13V118.275H172.513V92.2649V91.8252H172.074H151.56H151.121V92.2649V118.275H136.504V51.4436H151.121V77.4532V77.8929H151.56H172.074H172.513V77.4532ZM224.11 92.44L227.386 105.314H209.695L212.972 92.44H224.11ZM208.564 106.194L205.49 118.275H189.687L208.284 51.4436H228.798L247.394 118.275H231.592L228.517 106.194L228.378 105.646L224.878 91.8919L224.793 91.5607L219.19 69.5422L219.105 69.211H218.764H218.318H217.976L217.892 69.5422L212.288 91.5607L212.204 91.8919L208.704 105.646L208.564 106.194ZM273.627 98.173H265.482V84.7697H270.505C272.387 84.7697 274.019 84.3823 275.382 83.5856L275.384 83.5841C276.761 82.7673 277.813 81.6108 278.537 80.1265C279.278 78.6437 279.641 76.9105 279.641 74.9406C279.641 72.9496 279.279 71.2243 278.534 69.7816C277.809 68.3202 276.756 67.1971 275.378 66.4255C274.015 65.6302 272.385 65.2436 270.505 65.2436H265.043H264.603V65.6833V83.8904V84.3301V98.6127V99.0524V118.275H249.986V51.4436H274.184C278.349 51.4436 281.973 52.4178 285.072 54.3524C288.175 56.2897 290.592 59.0136 292.324 62.5379C294.054 66.0594 294.927 70.1895 294.927 74.9406C294.927 79.7347 294.027 83.8618 292.244 87.3363L292.243 87.3379C290.477 90.8154 287.998 93.4842 284.804 95.3571L284.803 95.3576C281.629 97.2296 277.908 98.173 273.627 98.173ZM321.209 98.173H313.064V84.7697H318.087C319.968 84.7697 321.6 84.3823 322.964 83.5856L322.966 83.5841C324.342 82.7678 325.394 81.612 326.117 80.1289C326.86 78.6455 327.223 76.9116 327.223 74.9406C327.223 72.9503 326.861 71.2255 326.116 69.7831C325.392 68.3209 324.338 67.1974 322.96 66.4255C321.597 65.6302 319.967 65.2436 318.087 65.2436H312.624H312.185V65.6833V83.8904V84.3301V98.6127V99.0524V118.275H297.568V51.4436H321.766C325.931 51.4436 329.555 52.4178 332.654 54.3524C335.757 56.2897 338.174 59.0136 339.906 62.5379C341.636 66.0594 342.509 70.1895 342.509 74.9406C342.509 79.7347 341.609 83.8618 339.826 87.3363L339.825 87.3379C338.059 90.8154 335.58 93.4842 332.386 95.3571L332.385 95.3576C329.21 97.2296 325.49 98.173 321.209 98.173ZM3.75831 84.8591C3.75831 82.7334 3.95275 80.6545 4.32438 78.6398H19.751C19.0579 80.5806 18.68 82.6753 18.68 84.8591C18.68 94.8887 26.6523 103.034 36.505 103.034C46.3577 103.034 54.33 94.8887 54.33 84.8591C54.33 74.8294 46.3577 66.6837 36.505 66.6837C33.5317 66.6837 30.7276 67.4263 28.2626 68.7394V52.5109C30.8955 51.8143 33.6576 51.4436 36.505 51.4436C54.5822 51.4436 69.2517 66.3959 69.2517 84.8591C69.2517 103.322 54.5822 118.275 36.505 118.275C18.4277 118.275 3.75831 103.322 3.75831 84.8591ZM23.6204 74.1815L0.439677 70.2304V54.064L23.6204 58.0151V74.1815ZM70.9607 84.8591C70.9607 66.3852 85.269 51.4436 102.878 51.4436C120.486 51.4436 134.795 66.3852 134.795 84.8591C134.795 103.333 120.486 118.275 102.878 118.275C85.269 118.275 70.9607 103.333 70.9607 84.8591ZM102.878 66.6454C93.2345 66.6454 85.4508 74.8189 85.4508 84.8591C85.4508 94.8992 93.2345 103.073 102.878 103.073C112.521 103.073 120.305 94.8992 120.305 84.8591C120.305 74.8189 112.521 66.6454 102.878 66.6454Z" fill="#222222" stroke="white" stroke-width="0.879355"/>
<path d="M172.513 26.4493V0.439677H187.13V67.2706H172.513V41.261V40.8213H172.074H151.56H151.121V41.261V67.2706H136.504V0.439677H151.121V26.4493V26.889H151.56H172.074H172.513V26.4493ZM224.11 41.4361L227.386 54.3104H209.695L212.972 41.4361H224.11ZM208.564 55.1898L205.49 67.2706H189.687L208.284 0.439677H228.798L247.394 67.2706H231.592L228.517 55.1898L228.378 54.6417L224.878 40.888L224.793 40.5568L219.19 18.5383L219.105 18.2071H218.764H218.318H217.976L217.892 18.5383L212.288 40.5568L212.204 40.888L208.704 54.6417L208.564 55.1898ZM273.627 47.1691H265.482V33.7658H270.505C272.387 33.7658 274.019 33.3784 275.382 32.5817L275.384 32.5802C276.761 31.7634 277.813 30.6069 278.537 29.1226C279.278 27.6398 279.641 25.9066 279.641 23.9366C279.641 21.9457 279.279 20.2204 278.534 18.7777C277.809 17.3162 276.756 16.1932 275.378 15.4216C274.015 14.6263 272.385 14.2397 270.505 14.2397H265.043H264.603V14.6794V32.8865V33.3262V47.6088V48.0485V67.2706H249.986V0.439677H274.184C278.349 0.439677 281.973 1.41392 285.072 3.34851C288.175 5.28576 290.592 8.00968 292.324 11.534C294.054 15.0555 294.927 19.1856 294.927 23.9366C294.927 28.7308 294.027 32.8579 292.244 36.3324L292.243 36.334C290.477 39.8115 287.998 42.4803 284.804 44.3531L284.803 44.3537C281.629 46.2256 277.908 47.1691 273.627 47.1691ZM321.209 47.1691H313.064V33.7658H318.087C319.968 33.7658 321.6 33.3784 322.964 32.5817L322.966 32.5802C324.342 31.7639 325.394 30.6081 326.117 29.125C326.86 27.6416 327.223 25.9077 327.223 23.9366C327.223 21.9464 326.861 20.2216 326.116 18.7792C325.392 17.317 324.338 16.1935 322.96 15.4216C321.597 14.6263 319.967 14.2397 318.087 14.2397H312.624H312.185V14.6794V32.8865V33.3262V47.6088V48.0485V67.2706H297.568V0.439677H321.766C325.931 0.439677 329.555 1.41392 332.654 3.34851C335.757 5.28577 338.174 8.00968 339.906 11.534C341.636 15.0555 342.509 19.1856 342.509 23.9366C342.509 28.7308 341.609 32.8579 339.826 36.3324L339.825 36.334C338.059 39.8115 335.58 42.4803 332.386 44.3531L332.385 44.3537C329.21 46.2256 325.49 47.1691 321.209 47.1691ZM3.75831 33.8551C3.75831 31.7295 3.95275 29.6506 4.32438 27.6359H19.751C19.0579 29.5767 18.68 31.6714 18.68 33.8551C18.68 43.8848 26.6523 52.0305 36.505 52.0305C46.3577 52.0305 54.33 43.8848 54.33 33.8551C54.33 23.8255 46.3577 15.6798 36.505 15.6798C33.5317 15.6798 30.7276 16.4224 28.2626 17.7355V1.507C30.8955 0.810428 33.6576 0.439677 36.505 0.439677C54.5822 0.439677 69.2517 15.392 69.2517 33.8551C69.2517 52.3183 54.5822 67.2706 36.505 67.2706C18.4277 67.2706 3.75831 52.3183 3.75831 33.8551ZM23.6204 23.1776L0.439677 19.2265V3.0601L23.6204 7.01122V23.1776ZM70.9607 33.8551C70.9607 15.3813 85.269 0.439677 102.878 0.439677C120.486 0.439677 134.795 15.3813 134.795 33.8551C134.795 52.329 120.486 67.2706 102.878 67.2706C85.269 67.2706 70.9607 52.329 70.9607 33.8551ZM102.878 15.6415C93.2345 15.6415 85.4508 23.815 85.4508 33.8551C85.4508 43.8953 93.2345 52.0688 102.878 52.0688C112.521 52.0688 120.305 43.8953 120.305 33.8551C120.305 23.815 112.521 15.6415 102.878 15.6415Z" fill="#222222" stroke="white" stroke-width="0.879355"/>
</g>
</svg>
